<svg style="enable-background:new 0 0 100 100" viewBox="0 0 100 100" xml:space="preserve" fill="#a2a2f3"
     xmlns="http://www.w3.org/2000/svg"><style>.st0{fill:#fff}.st1,.st2{fill:none;stroke:#000;stroke-width:3;stroke-linecap:round;stroke-linejoin:round;stroke-miterlimit:10}.st2{fill-rule:evenodd;clip-rule:evenodd}.st3,.st4,.st5{fill-rule:evenodd;clip-rule:evenodd}.st4{fill:none;stroke:#040404;stroke-width:3;stroke-linecap:round;stroke-linejoin:round;stroke-miterlimit:10}.st5{fill:mediumpurple}.st6{fill:none}.st7,.st8{fill:none;stroke-miterlimit:10}.st7{stroke:#000;stroke-width:3}.st8{stroke:#fff}.st9{fill:#a2a2f3}</style>
    <g id="Layer_2">
    <path d="M49.117 41.174 24.76 22.905v25.259L50 67.094l25.24-18.93V22.905L50.883 41.174a1.47 1.47 0 0 1-1.766 0zM78.184 85.27h14.11a5.211 5.211 0 0 0 5.206-5.206V35.149L78.184 49.636V85.27zM2.5 80.064a5.211 5.211 0 0 0 5.206 5.206h14.11V49.636L2.5 35.149v44.915zM7.223 15.658C4.266 17.137 2.5 19.994 2.5 23.301v8.168l19.316 14.487V20.698l-5.644-4.232c-2.646-1.985-5.991-2.287-8.949-.808zM92.777 15.658c-2.958-1.478-6.303-1.178-8.949.807l-5.644 4.232v25.259L97.5 31.469v-8.168c0-3.307-1.766-6.164-4.723-7.643z"/></g></svg>