<?xml version="1.0" ?>
<svg id="Layer_1" style="enable-background:new 0 0 513 513;" fill="#fff" version="1.1" viewBox="0 0 513 513" xml:space="preserve"
     xmlns="http://www.w3.org/2000/svg" xmlns:xlink="http://www.w3.org/1999/xlink"><path d="M256.1,448.6c-52.8,0-98.6-19-136-56.4c-37.4-37.4-56.4-83.2-56.4-136s19-98.6,56.4-136c37.4-37.4,83.2-56.4,136-56.4  s98.6,19,136,56.4c37.4,37.4,56.4,83.2,56.4,136s-19,98.6-56.4,136C354.7,429.6,309,448.6,256.1,448.6z M256.1,79.8  c-48.5,0-90.4,17.4-124.7,51.7c-34.3,34.3-51.7,76.3-51.7,124.7s17.4,90.4,51.7,124.7c34.3,34.3,76.2,51.7,124.7,51.7  s90.4-17.4,124.7-51.7s51.7-76.2,51.7-124.7s-17.4-90.4-51.7-124.7C346.5,97.2,304.6,79.8,256.1,79.8L256.1,79.8z M251.9,418.1  c-0.1,0-0.1,0-0.2,0c-42.6-1-79.7-16.9-110.1-47.3c-31.5-31.5-47.4-70-47.4-114.5c0-44.5,15.9-83,47.4-114.5  C172,111.4,209,95.5,251.7,94.5c1.3,0,2.7-0.1,4.1-0.1h0.3c0,0,0.1,0,0.1,0l3.9,0.1c0.1,0,0.2,0,0.2,0c21.5,1,40.3,9.3,55.7,24.8  c16.5,16.5,24.9,36.7,24.9,60.1c0,23.4-8.4,43.6-24.9,60c-16.2,16.2-36.1,24.6-59,24.9H255c-18.7,0.2-34.4,6.8-47.8,20.2  c-13.6,13.6-20.2,29.5-20.1,48.8c0,19.2,6.6,35.2,20.2,48.8c12.7,12.7,27.4,19.2,45,20.1c4.4,0.2,7.8,3.9,7.6,8.3  C259.7,414.7,256.2,418.1,251.9,418.1L251.9,418.1z M255.8,110.4c-1.2,0-2.4,0-3.7,0.1c-38.5,0.9-71.8,15.2-99.2,42.6  c-28.3,28.3-42.7,63.1-42.7,103.2c0,40.1,14.4,74.8,42.7,103.2c11.4,11.4,23.8,20.5,37.1,27.3c-12.6-15.2-18.9-33.2-18.9-53.6  c0-23.4,8.3-43.6,24.8-60.1c16.2-16.2,36.1-24.6,59-24.9h2.1c18.7-0.2,34.4-6.8,47.8-20.2c6.7-6.7,11.9-14.2,15.2-22.3  c3.3-8,5-16.9,5-26.5c0-9.5-1.7-18.4-5-26.5c-3.3-8.1-8.4-15.6-15.2-22.3c-12.7-12.7-27.4-19.3-45-20.1L255.8,110.4L255.8,110.4z   M312.9,408.6c-3.2,0-6.2-1.9-7.5-5.1c-1.6-4.1,0.5-8.8,4.6-10.4c5-2,10-4.2,14.8-6.8c3.9-2.1,8.8-0.6,10.8,3.3  c2.1,3.9,0.6,8.7-3.3,10.8c-5.3,2.8-10.9,5.4-16.5,7.6C314.8,408.4,313.8,408.6,312.9,408.6z M354.1,384.2c-2.3,0-4.6-1-6.1-2.9  c-2.8-3.4-2.4-8.4,1-11.3c3.8-3.2,7.5-6.6,11.1-10.2c28.4-28.4,42.9-63.2,42.9-103.5c0-25.2-5.6-48.4-16.7-68.9  c-2.1-3.9-0.7-8.7,3.2-10.8c3.9-2.1,8.7-0.7,10.8,3.2c12.4,22.9,18.6,48.6,18.6,76.5c0,44.6-16,83.2-47.5,114.8  c-3.9,4-8,7.7-12.2,11.2C357.8,383.5,356,384.2,354.1,384.2L354.1,384.2z M256.1,366.6c-9.2,0-17.1-3.3-23.6-9.8  c-6.5-6.5-9.8-14.4-9.8-23.6c0-9.2,3.3-17.1,9.8-23.6c6.5-6.5,14.4-9.8,23.6-9.8c9.2,0,17.1,3.3,23.6,9.8c6.5,6.5,9.8,14.4,9.8,23.6  c0,9.2-3.3,17.1-9.8,23.6C273.2,363.3,265.3,366.6,256.1,366.6z M256.1,315.8c-4.9,0-8.8,1.6-12.3,5.1c-3.5,3.5-5.1,7.4-5.1,12.3  c0,4.9,1.6,8.8,5.1,12.3c3.5,3.5,7.4,5.1,12.3,5.1c4.9,0,8.8-1.6,12.3-5.1c3.5-3.5,5.1-7.4,5.1-12.3c0-4.9-1.6-8.8-5.1-12.3  C264.9,317.5,260.9,315.9,256.1,315.8L256.1,315.8z M256.1,212.7c-9.2,0-17.1-3.3-23.6-9.8c-6.5-6.5-9.8-14.4-9.8-23.6  c0-9.2,3.3-17.2,9.8-23.7c6.5-6.5,14.4-9.7,23.5-9.7h0.2c9.1,0,17,3.3,23.5,9.7c6.5,6.5,9.8,14.5,9.8,23.7c0,9.2-3.3,17.1-9.8,23.6  C273.2,209.4,265.2,212.7,256.1,212.7L256.1,212.7z M256,161.9c-4.9,0-8.8,1.6-12.3,5.1c-3.5,3.5-5.1,7.4-5.1,12.4  c0,4.9,1.6,8.8,5.1,12.3c3.5,3.5,7.4,5.1,12.3,5.1c4.9,0,8.8-1.6,12.3-5.1c3.5-3.5,5.1-7.4,5.1-12.3c0-4.9-1.6-8.8-5.1-12.3  c-3.5-3.4-7.3-5.1-12.2-5.1H256z"/></svg>